REM DIRINDEX 1\2,1\3,1\4,1\5
REM DIRNAME folder01,folder02,folder03,folder04,folder05
TITLE ""
FILE "P1Q_t_0502-0511.mp3" MP3
  TRACK 01 AUDIO
    TITLE "3:cjc005_2408"
    INDEX 01 00:00:00
  TRACK 02 AUDIO
    TITLE "0:"
    INDEX 01 00:01:11
  TRACK 03 AUDIO
    TITLE "4:cjc005_2409"
    INDEX 01 00:01:46
  TRACK 04 AUDIO
    TITLE "0:"
    INDEX 01 00:03:04
  TRACK 05 AUDIO
    TITLE "5:cjc005_2410"
    INDEX 01 00:03:27
  TRACK 06 AUDIO
    TITLE "0:"
    INDEX 01 00:07:58
  TRACK 07 AUDIO
    TITLE "3:cjc005_2411"
    INDEX 01 00:08:34
  TRACK 08 AUDIO
    TITLE "0:"
    INDEX 01 00:09:51
  TRACK 09 AUDIO
    TITLE "4:cjc005_2412"
    INDEX 01 00:10:02
  TRACK 10 AUDIO
    TITLE "0:"
    INDEX 01 00:11:54
  TRACK 11 AUDIO
    TITLE "5:cjc005_2413"
    INDEX 01 00:12:05
  TRACK 12 AUDIO
    TITLE "0:"
    INDEX 01 00:16:28
  TRACK 13 AUDIO
    TITLE "3:cjc005_2414"
    INDEX 01 00:17:00
  TRACK 14 AUDIO
    TITLE "0:"
    INDEX 01 00:18:44
  TRACK 15 AUDIO
    TITLE "4:cjc005_2415"
    INDEX 01 00:18:72
  TRACK 16 AUDIO
    TITLE "0:"
    INDEX 01 00:20:37
  TRACK 17 AUDIO
    TITLE "5:cjc005_2416"
    INDEX 01 00:20:59
  TRACK 18 AUDIO
    TITLE "0:"
    INDEX 01 00:24:31
  TRACK 19 AUDIO
    TITLE "3:cjc005_2417"
    INDEX 01 00:25:05
  TRACK 20 AUDIO
    TITLE "0:"
    INDEX 01 00:26:07
  TRACK 21 AUDIO
    TITLE "4:cjc005_2418"
    INDEX 01 00:26:40
  TRACK 22 AUDIO
    TITLE "0:"
    INDEX 01 00:27:65
  TRACK 23 AUDIO
    TITLE "5:cjc005_2419"
    INDEX 01 00:28:12
  TRACK 24 AUDIO
    TITLE "0:"
    INDEX 01 00:31:45
  TRACK 25 AUDIO
    TITLE "3:cjc005_2420"
    INDEX 01 00:32:19
  TRACK 26 AUDIO
    TITLE "0:"
    INDEX 01 00:33:40
  TRACK 27 AUDIO
    TITLE "4:cjc005_2421"
    INDEX 01 00:33:60
  TRACK 28 AUDIO
    TITLE "0:"
    INDEX 01 00:35:17
  TRACK 29 AUDIO
    TITLE "5:cjc005_2422"
    INDEX 01 00:35:39
  TRACK 30 AUDIO
    TITLE "0:"
    INDEX 01 00:38:61
  TRACK 31 AUDIO
    TITLE "3:cjc005_2423"
    INDEX 01 00:39:43
  TRACK 32 AUDIO
    TITLE "0:"
    INDEX 01 00:40:73
  TRACK 33 AUDIO
    TITLE "4:cjc005_2424"
    INDEX 01 00:41:28
  TRACK 34 AUDIO
    TITLE "0:"
    INDEX 01 00:42:53
  TRACK 35 AUDIO
    TITLE "5:cjc005_2425"
    INDEX 01 00:43:01
  TRACK 36 AUDIO
    TITLE "0:"
    INDEX 01 00:46:37
  TRACK 37 AUDIO
    TITLE "3:cjc005_2426"
    INDEX 01 00:47:09
  TRACK 38 AUDIO
    TITLE "0:"
    INDEX 01 00:48:20
  TRACK 39 AUDIO
    TITLE "4:cjc005_2427"
    INDEX 01 00:48:49
  TRACK 40 AUDIO
    TITLE "0:"
    INDEX 01 00:50:01
  TRACK 41 AUDIO
    TITLE "5:cjc005_2428"
    INDEX 01 00:50:25
  TRACK 42 AUDIO
    TITLE "0:"
    INDEX 01 00:54:05
  TRACK 43 AUDIO
    TITLE "3:cjc005_2429"
    INDEX 01 00:54:56
  TRACK 44 AUDIO
    TITLE "0:"
    INDEX 01 00:55:71
  TRACK 45 AUDIO
    TITLE "4:cjc005_2430"
    INDEX 01 00:56:33
  TRACK 46 AUDIO
    TITLE "0:"
    INDEX 01 00:57:74
  TRACK 47 AUDIO
    TITLE "5:cjc005_2431"
    INDEX 01 00:58:22
  TRACK 48 AUDIO
    TITLE "0:"
    INDEX 01 01:02:34
  TRACK 49 AUDIO
    TITLE "3:cjc005_2432"
    INDEX 01 01:03:08
  TRACK 50 AUDIO
    TITLE "0:"
    INDEX 01 01:04:31
  TRACK 51 AUDIO
    TITLE "4:cjc005_2433"
    INDEX 01 01:04:50
  TRACK 52 AUDIO
    TITLE "0:"
    INDEX 01 01:06:26
  TRACK 53 AUDIO
    TITLE "5:cjc005_2434"
    INDEX 01 01:06:49
  TRACK 54 AUDIO
    TITLE "0:"
    INDEX 01 01:10:43
  TRACK 55 AUDIO
    TITLE "3:cjc005_2435"
    INDEX 01 01:11:19
  TRACK 56 AUDIO
    TITLE "0:"
    INDEX 01 01:12:42
  TRACK 57 AUDIO
    TITLE "4:cjc005_2436"
    INDEX 01 01:12:71
  TRACK 58 AUDIO
    TITLE "0:"
    INDEX 01 01:14:51
  TRACK 59 AUDIO
    TITLE "5:cjc005_2437"
    INDEX 01 01:15:01
  TRACK 60 AUDIO
    TITLE "0:"
    INDEX 01 01:19:42
